<?xml version="1.0" encoding="UTF-8"?>
<svg width="700px" height="86px" viewBox="0 0 700 86" version="1.1" xmlns="http://www.w3.org/2000/svg" xmlns:xlink="http://www.w3.org/1999/xlink">
    <title>CHEF POINT Logo</title>
    <g id="CHEF-POINT-Logo" stroke="none" stroke-width="1" fill="none" fill-rule="evenodd">
        <g id="Group" transform="translate(-0.000000, 0.000318)">
            <path d="M0,12.4605165 C0,5.70957079 5.51251422,0 12.670809,0 C20.0459895,0 25.2597542,5.70957079 25.2597542,12.4605165 C25.2597542,19.2823688 20.0459895,24.8458932 12.670809,24.8458932 C5.51251422,24.8458932 0,19.2823688 0,12.4605165 L0,12.4605165 Z M22.1329838,12.4605165 C22.1329838,7.11923684 18.3300401,2.74313392 12.670809,2.74313392 C7.08174681,2.74313392 3.13208619,7.11923684 3.13208619,12.4605165 C3.13208619,17.8017962 7.08174681,22.0255028 12.670809,22.0255028 C18.3300401,22.0255028 22.1329838,17.8017962 22.1329838,12.4605165 L22.1329838,12.4605165 Z M11.8479187,13.7188445 L11.8479187,18.0949474 L7.67499328,18.0949474 L7.67499328,6.15406009 L13.2640554,6.15406009 C16.6151538,6.15406009 18.2598711,7.41767965 18.2598711,9.93856892 C18.2598711,11.6424445 17.5135288,12.7589593 16.0208441,13.3494951 L18.7776328,18.0949474 L14.1581778,18.0949474 L11.8479187,13.7188445 Z M12.4422283,11.6424445 C13.710585,11.6424445 14.0816299,11.4244331 14.0816299,10.3079184 C14.0816299,9.12049696 13.4873202,9.04959034 12.594261,9.04959034 L11.8479187,9.04959034 L11.8479187,11.6424445 L12.4422283,11.6424445 Z" id="Fill-1" fill="#221E20"></path>
            <path d="M332.298078,71.0510843 C320.236463,71.0510843 310.049209,60.7325828 310.049209,48.5144188 C310.049209,36.0983513 320.236463,25.6031124 332.298078,25.6031124 C344.567011,25.6031124 354.932876,36.0983513 354.932876,48.5144188 C354.932876,60.9400112 344.780707,71.0510843 332.298078,71.0510843" id="Fill-3" fill="#E42528"></path>
            <path d="M29.0439862,42.8634783 L29.0439862,42.6105427 C29.0439862,17.2894693 44.6385009,1.00317 68.2833063,1.00317 C82.2182193,1.00317 89.6295475,5.32953245 93.5940924,9.27596238 L93.5940924,25.814139 C89.3754509,23.1408534 82.0906394,20.4728593 73.9085161,20.4728593 C62.6644755,20.4728593 55.2478315,25.4352648 55.2478315,38.5381741 L55.2478315,45.9156381 C55.2478315,62.3331676 63.8116313,67.6744473 75.4416011,67.6744473 C80.939231,67.6744473 89.6295475,66.1483674 94.1065383,62.7120418 L94.1065383,76.9621569 C90.39609,81.0345254 83.7513043,85.9969309 69.9482238,85.9969309 C45.02443,85.9969309 29.0439862,70.4736715 29.0439862,42.8634783" id="Fill-5" fill="#221E20"></path>
            <polygon id="Fill-7" fill="#221E20" points="102.856711 2.7853604 127.527471 2.7853604 127.527471 33.3207165 152.192916 33.3207165 152.192916 2.7853604 176.863676 2.7853604 176.863676 84.0898602 152.192916 84.0898602 152.192916 52.4062401 127.527471 52.4062401 127.527471 84.0898602 102.856711 84.0898602"></polygon>
            <polygon id="Fill-9" fill="#221E20" points="188.199149 2.7853604 246.6116 2.7853604 246.6116 22.5079853 212.86991 22.5079853 212.86991 36.120999 244.053623 36.120999 244.053623 53.0433414 212.86991 53.0433414 212.86991 67.4193951 246.6116 67.4193951 246.6116 84.0898602 188.199149 84.0898602"></polygon>
            <path d="M424.937661,43.2454216 L424.937661,42.992486 C424.937661,17.545474 440.912789,1.00200586 465.969478,1.00200586 C491.020852,1.00200586 506.8684,17.545474 506.8684,42.992486 L506.8684,43.2454216 C506.8684,71.7445934 488.589392,86 465.969478,86 C443.598345,86 424.937661,71.7445934 424.937661,43.2454216 M481.050484,45.4086028 L481.050484,39.809096 C481.050484,26.5749565 476.705325,19.4557197 465.969478,19.4557197 C455.232567,19.4557197 450.882093,26.5749565 450.882093,39.809096 L450.882093,45.4086028 C450.882093,61.8208408 456.12669,68.4405563 465.969478,68.4405563 C475.812266,68.4405563 481.050484,61.8208408 481.050484,45.4086028" id="Fill-11" fill="#221E20"></path>
            <polygon id="Fill-13" fill="#221E20" points="514.714669 84.0907068 539.385429 84.0907068 539.385429 2.78620705 514.714669 2.78620705"></polygon>
            <polygon id="Fill-15" fill="#221E20" points="550.735574 2.7853604 583.843617 2.7853604 604.416937 52.533237 604.416937 2.7853604 625.254985 2.7853604 625.254985 84.0898602 595.986033 84.0898602 571.568306 27.722268 571.568306 84.0898602 550.735574 84.0898602"></polygon>
            <polygon id="Fill-16" fill="#221E20" points="630.465135 2.78387877 630.465135 22.5065037 652.830952 22.5065037 652.830952 84.0883785 677.501712 84.0883785 677.501712 22.5065037 700.000425 22.5065037 700.000425 2.78387877"></polygon>
            <path d="M387.846786,2.7853604 L354.612225,2.7853604 L354.612225,27.5349475 C359.774958,33.0942386 362.987845,40.5066267 362.987845,48.5159005 C362.987845,56.3029295 360.018423,63.6698104 354.612225,69.3846727 L354.612225,84.0898602 L379.282986,84.0898602 L379.282986,61.8209466 L388.100882,61.8209466 C411.751004,61.8209466 421.716056,51.1330957 421.716056,32.1745691 C421.716056,12.83611 411.365074,2.7853604 387.846786,2.7853604 M385.547158,45.1557731 L379.282986,45.1557731 L379.282986,21.107844 L386.313701,21.107844 C394.623404,21.107844 397.563057,24.9230438 397.563057,32.9418423 C397.563057,40.9564076 394.365055,45.1557731 385.547158,45.1557731" id="Fill-17" fill="#221E20"></path>
            <path d="M301.988074,48.5168529 C301.988074,45.4594016 302.454804,42.494023 303.307463,39.6842157 L281.353091,39.6842157 L281.353091,22.5089378 L314.201722,22.5089378 L314.201722,2.78631288 L256.682331,2.78631288 L256.682331,84.0855211 L281.353091,84.0855211 L281.353091,57.8807607 L303.510528,57.8807607 C302.531352,54.9143238 301.988074,51.765858 301.988074,48.5168529" id="Fill-18" fill="#221E20"></path>
        </g>
    </g>
</svg>